<svg width="91" height="91" viewBox="0 0 91 91" fill="none" xmlns="http://www.w3.org/2000/svg">
<g clip-path="url(#clip0_6108_2830)">
<path d="M27.6561 44.6855H17.3227C16.7903 44.6855 16.3584 45.1175 16.3584 45.6498V56.1628C16.3584 56.6952 16.7903 57.1271 17.3227 57.1271C17.855 57.1271 18.287 56.6952 18.287 56.1628V46.6141H27.6561C28.1885 46.6141 28.6204 46.1822 28.6204 45.6498C28.6204 45.1175 28.1885 44.6855 27.6561 44.6855Z" fill="#EB6753"/>
<path d="M17.3227 59.2478C16.7903 59.2478 16.3584 59.6797 16.3584 60.2121V61.5193C16.3584 62.0515 16.7903 62.4835 17.3227 62.4835C17.855 62.4835 18.287 62.0515 18.287 61.5193V60.2121C18.287 59.6797 17.855 59.2478 17.3227 59.2478Z" fill="#EB6753"/>
<path d="M61.3862 13.4153C61.0346 13.8159 61.0748 14.4261 61.4738 14.7764L75.5954 27.1664C75.995 27.5168 76.604 27.4796 76.9562 27.0785C77.3078 26.678 77.2676 26.0678 76.8686 25.7175L62.747 13.3274C62.3468 12.9759 61.739 13.0136 61.3862 13.4153Z" fill="#EB6753"/>
<path d="M57.74 10.2185C57.3896 10.619 57.4298 11.228 57.8304 11.5795L58.4192 12.0956C58.8261 12.4494 59.432 12.4016 59.7803 12.0051C60.1306 11.6046 60.0904 10.9956 59.6899 10.6441L59.101 10.128C58.7005 9.77903 58.0915 9.81665 57.74 10.2185Z" fill="#EB6753"/>
<path d="M43.6095 18.4189C39.3666 18.4189 35.9209 21.8775 35.9209 26.1204C35.9209 30.3504 39.3666 33.7961 43.6095 33.7961C47.8394 33.7961 51.2852 30.3504 51.2852 26.1204C51.2852 21.8775 47.8394 18.4189 43.6095 18.4189ZM43.6095 31.8675C40.4338 31.8675 37.8495 29.2833 37.8495 26.1204C37.8495 22.9318 40.4338 20.3475 43.6095 20.3475C46.7723 20.3475 49.3566 22.9318 49.3566 26.1204C49.3566 29.2833 46.7723 31.8675 43.6095 31.8675Z" fill="#181A20"/>
<path d="M32.2439 68.8961C32.2439 69.4361 31.8068 69.8603 31.2796 69.8603H29.9296C29.3897 69.8603 28.9653 69.4361 28.9653 68.8961C28.9653 68.3687 29.3897 67.9319 29.9296 67.9319H31.2796C31.8068 67.9319 32.2439 68.3687 32.2439 68.8961Z" fill="#181A20"/>
<path d="M69.1719 58.606H59.7953C59.2629 58.606 58.8311 59.0379 58.8311 59.5703C58.8311 60.1026 59.2629 60.5345 59.7953 60.5345H69.1719C69.7041 60.5345 70.1361 60.1026 70.1361 59.5703C70.1361 59.0379 69.7041 58.606 69.1719 58.606Z" fill="#EB6753"/>
<path d="M56.4743 58.606H56.2821C55.7498 58.606 55.3179 59.0379 55.3179 59.5703C55.3179 60.1026 55.7498 60.5345 56.2821 60.5345H56.4743C57.0066 60.5345 57.4385 60.1026 57.4385 59.5703C57.4385 59.0379 57.0066 58.606 56.4743 58.606Z" fill="#EB6753"/>
<path d="M84.5725 63.7273H75.9709V41.4847H79.0177C81.8209 41.4847 83.1193 38.0132 81.0235 36.1747L45.5893 5.0861C44.4451 4.08328 42.7351 4.08328 41.5908 5.0861L26.6508 18.2133V14.2147H28.0651C28.9265 14.2147 29.6208 13.5204 29.6208 12.6718V8.00471C29.6208 7.15607 28.9265 6.46182 28.0651 6.46182H12.4822C11.6208 6.46182 10.9265 7.15607 10.9265 8.00471V12.6718C10.9265 13.5204 11.6208 14.2147 12.4822 14.2147H13.9094V29.399L6.18223 36.1747C4.0865 38.0261 5.39795 41.4847 8.18795 41.4847H11.2351V84.6979H7.85363C7.32653 84.6979 6.88937 85.1221 6.88937 85.6621C6.88937 86.1889 7.32653 86.6263 7.85363 86.6263H7.93079H84.5725C85.8067 86.6263 86.8092 85.6105 86.8092 84.3763V65.9647C86.8092 64.7305 85.8067 63.7273 84.5725 63.7273ZM12.8551 12.2861V8.39039H27.6922V12.2861H12.8551ZM24.7222 14.2147V19.8976L15.838 27.7018V14.2147H24.7222ZM8.18795 39.5561C7.17215 39.5561 6.69647 38.2961 7.45505 37.6275L42.8636 6.53897C43.2751 6.17899 43.9051 6.17899 44.3165 6.53897L79.7509 37.6275C80.5093 38.2961 80.0467 39.5561 79.0177 39.5561H8.18795ZM23.8093 54.6376V84.6979H13.1636V41.4847H74.0425V63.7273H47.9422V54.6376C47.9422 52.7347 46.3865 51.179 44.4836 51.179H27.2808C25.3651 51.179 23.8093 52.7347 23.8093 54.6376ZM46.0136 63.7531C44.9337 63.9073 44.0851 64.8721 44.0851 65.9647C44.098 73.6147 44.0593 84.3121 44.1108 84.6979H25.7379V54.6376C25.7379 53.8018 26.4322 53.1076 27.2807 53.1076H44.4836C45.3194 53.1076 46.0136 53.8018 46.0136 54.6376V63.7531ZM84.8809 84.3763C84.8809 84.5563 84.7393 84.6979 84.5725 84.6979H46.3222C46.2322 84.6979 46.0265 84.5563 46.0265 84.3889V65.9647C46.0265 65.7979 46.1936 65.6563 46.3222 65.6563C47.068 65.6689 74.2477 65.6563 84.5725 65.6563C84.7393 65.6563 84.8809 65.7979 84.8809 65.9647V84.3763Z" fill="#181A20"/>
<path d="M44.4835 53.1074H27.2807C26.4322 53.1074 25.7378 53.8017 25.7378 54.6374V84.6977H44.1107C44.0592 84.3119 44.0979 73.6145 44.085 65.9645C44.085 64.8719 44.9336 63.9071 46.0135 63.7529V54.6374C46.0135 53.8017 45.3193 53.1074 44.4835 53.1074ZM31.2792 69.8603H29.9292C29.3893 69.8603 28.965 69.4361 28.965 68.8961C28.965 68.3687 29.3893 67.9319 29.9292 67.9319H31.2792C31.8064 67.9319 32.2435 68.3687 32.2435 68.8961C32.2435 69.4361 31.8064 69.8603 31.2792 69.8603Z" fill="url(#paint0_linear_6108_2830)"/>
<path d="M12.855 8.38965H27.6921V12.2853H12.855V8.38965Z" fill="url(#paint1_linear_6108_2830)"/>
<path d="M24.7221 14.2146V19.8974L15.8379 27.7018V14.2146H24.7221Z" fill="url(#paint2_linear_6108_2830)"/>
<path d="M49.3567 26.1203C49.3567 29.2832 46.7725 31.8675 43.6096 31.8675C40.4339 31.8675 37.8496 29.2832 37.8496 26.1203C37.8496 22.9317 40.4339 20.3474 43.6096 20.3474C46.7725 20.3474 49.3567 22.9317 49.3567 26.1203Z" fill="#DDDDDD"/>
<path d="M53.9853 71.7629C52.1081 71.7629 50.5781 73.2929 50.5781 75.1703C50.5781 77.0603 52.1081 78.5903 53.9853 78.5903C55.8753 78.5903 57.3924 77.0603 57.3924 75.1703C57.3924 73.2929 55.8753 71.7629 53.9853 71.7629ZM53.9853 76.6619C53.1753 76.6619 52.5067 75.9929 52.5067 75.1703C52.5067 74.3603 53.1753 73.6919 53.9853 73.6919C54.8082 73.6919 55.4638 74.3603 55.4638 75.1703C55.4638 75.9929 54.8082 76.6619 53.9853 76.6619Z" fill="#181A20"/>
<path d="M55.4639 75.1703C55.4639 75.9929 54.8083 76.6619 53.9854 76.6619C53.1754 76.6619 52.5068 75.9929 52.5068 75.1703C52.5068 74.3603 53.1754 73.6919 53.9854 73.6919C54.8083 73.6919 55.4639 74.3603 55.4639 75.1703Z" fill="#DDDDDD"/>
<path d="M76.9092 71.7629C75.0324 71.7629 73.5024 73.2929 73.5024 75.1703C73.5024 77.0603 75.0324 78.5903 76.9092 78.5903C78.7866 78.5903 80.3166 77.0603 80.3166 75.1703C80.3166 73.2929 78.7866 71.7629 76.9092 71.7629ZM76.9092 76.6619C76.0866 76.6619 75.4308 75.9929 75.4308 75.1703C75.4308 74.3603 76.0866 73.6919 76.9092 73.6919C77.7324 73.6919 78.3876 74.3603 78.3876 75.1703C78.3876 75.9929 77.7324 76.6619 76.9092 76.6619Z" fill="#181A20"/>
<path d="M78.388 75.1703C78.388 75.9929 77.7328 76.6619 76.9096 76.6619C76.087 76.6619 75.4312 75.9929 75.4312 75.1703C75.4312 74.3603 76.087 73.6919 76.9096 73.6919C77.7328 73.6919 78.388 74.3603 78.388 75.1703Z" fill="#DDDDDD"/>
<path d="M65.4488 70.7045C66.416 70.7045 67.2032 71.4905 67.2032 72.4577C67.2032 72.9899 67.6352 73.4219 68.1674 73.4219C68.6996 73.4219 69.1316 72.9899 69.1316 72.4577C69.1316 70.7633 67.9742 69.3473 66.4136 68.9207V68.2049C66.4136 67.6727 65.9816 67.2407 65.4488 67.2407C64.9166 67.2407 64.4846 67.6727 64.4846 68.2049V68.9207C62.924 69.3473 61.7666 70.7633 61.7666 72.4577C61.7666 74.4881 63.419 76.1399 65.4488 76.1399C66.416 76.1399 67.2032 76.9271 67.2032 77.8943C67.2032 78.8609 66.416 79.6469 65.4488 79.6469C64.4822 79.6469 63.695 78.8609 63.695 77.8943C63.695 77.3621 63.263 76.9301 62.7308 76.9301C62.1986 76.9301 61.7666 77.3621 61.7666 77.8943C61.7666 79.5887 62.924 81.0047 64.4846 81.4313V82.1471C64.4846 82.6793 64.9166 83.1113 65.4488 83.1113C65.9816 83.1113 66.4136 82.6793 66.4136 82.1471V81.4313C67.9742 81.0047 69.1316 79.5887 69.1316 77.8943C69.1316 75.8639 67.4792 74.2115 65.4488 74.2115C64.4822 74.2115 63.695 73.4243 63.695 72.4577C63.695 71.4905 64.4822 70.7045 65.4488 70.7045Z" fill="#181A20"/>
</g>
<defs>
<linearGradient id="paint0_linear_6108_2830" x1="35.8757" y1="53.1074" x2="35.8757" y2="84.6977" gradientUnits="userSpaceOnUse">
<stop stop-color="#DDDDDD" stop-opacity="0"/>
<stop offset="1" stop-color="#DDDDDD"/>
</linearGradient>
<linearGradient id="paint1_linear_6108_2830" x1="20.2736" y1="8.38965" x2="20.2736" y2="12.2853" gradientUnits="userSpaceOnUse">
<stop stop-color="#DDDDDD" stop-opacity="0"/>
<stop offset="1" stop-color="#DDDDDD"/>
</linearGradient>
<linearGradient id="paint2_linear_6108_2830" x1="20.28" y1="14.2146" x2="20.28" y2="27.7018" gradientUnits="userSpaceOnUse">
<stop stop-color="#DDDDDD" stop-opacity="0"/>
<stop offset="1" stop-color="#DDDDDD"/>
</linearGradient>
<clipPath id="clip0_6108_2830">
<rect width="90" height="90" fill="white" transform="translate(0.97998 0.47998)"/>
</clipPath>
</defs>
</svg>
