<svg width="16" height="17" viewBox="0 0 16 17" fill="none" xmlns="http://www.w3.org/2000/svg">
<g clip-path="url(#clip0_6108_2857)">
<path d="M15.0633 1.17871H5.89667C5.66636 1.17871 5.47999 1.36511 5.47999 1.59546C5.47999 1.8258 5.66636 2.01221 5.89667 2.01221H14.0575L0.602061 15.4697C0.439287 15.6325 0.439287 15.8962 0.602061 16.059C0.683427 16.1404 0.790068 16.1811 0.89667 16.1811C1.00327 16.1811 1.10987 16.1404 1.19128 16.059L14.6467 2.60147V10.7635C14.6467 10.9939 14.8331 11.1803 15.0633 11.1803C15.2936 11.1803 15.48 10.9939 15.48 10.7635V1.59546C15.48 1.36511 15.2936 1.17871 15.0633 1.17871Z" fill="#EB6753"/>
</g>
<defs>
<clipPath id="clip0_6108_2857">
<rect width="15" height="15.94" fill="white" transform="translate(0.47998 0.549805)"/>
</clipPath>
</defs>
</svg>
