<svg width="15" height="16" viewBox="0 0 15 16" fill="none" xmlns="http://www.w3.org/2000/svg">
<g clip-path="url(#clip0_6108_2647)">
<path d="M15 0.680029V10.38C15 10.5467 14.9417 10.6967 14.825 10.83C14.7083 10.9634 14.5583 11.03 14.375 11.03C14.1917 11.03 14.0333 10.9634 13.9 10.83C13.7667 10.6967 13.7 10.5467 13.7 10.38V2.23003L1.1 14.83C0.966667 14.9634 0.808333 15.03 0.625 15.03C0.441667 15.03 0.291667 14.9717 0.175 14.855C0.0583333 14.7384 0 14.5884 0 14.405C0 14.2217 0.0666667 14.0634 0.2 13.93L12.8 1.33003H4.65C4.48333 1.33003 4.33333 1.26336 4.2 1.13003C4.06667 0.996696 4 0.838363 4 0.655029C4 0.471696 4.06667 0.321695 4.2 0.205029C4.33333 0.0883627 4.48333 0.0300293 4.65 0.0300293H14.35C14.55 0.0300293 14.7083 0.0883627 14.825 0.205029C14.9417 0.321695 15 0.480029 15 0.680029Z" fill="#181A20"/>
</g>
<defs>
<clipPath id="clip0_6108_2647">
<rect width="15" height="15" fill="white" transform="matrix(1 0 0 -1 0 15.03)"/>
</clipPath>
</defs>
</svg>
