<svg width="91" height="91" viewBox="0 0 91 91" fill="none" xmlns="http://www.w3.org/2000/svg">
<g clip-path="url(#clip0_6108_2862)">
<g clip-path="url(#clip1_6108_2862)">
<path d="M6.72063 58.2029C7.25301 58.2029 7.68495 57.7711 7.68495 57.2387V56.808C7.68495 56.2756 7.25301 55.8438 6.72063 55.8438C6.18827 55.8438 5.75635 56.2756 5.75635 56.808V57.2387C5.75635 57.7711 6.18827 58.2029 6.72063 58.2029Z" fill="#EB6753"/>
<path d="M5.75635 74.5571C5.75635 75.0893 6.18827 75.5213 6.72063 75.5213C7.25301 75.5213 7.68495 75.0893 7.68495 74.5571V60.5873C7.68495 60.055 7.25301 59.623 6.72063 59.623C6.18827 59.623 5.75635 60.055 5.75635 60.5873V74.5571Z" fill="#EB6753"/>
<path d="M63.1316 16.5064C62.7308 16.1549 62.123 16.1938 61.7702 16.5943C61.4192 16.9949 61.4588 17.6038 61.8584 17.9554L73.013 27.7439C73.4126 28.0943 74.0216 28.0571 74.3738 27.656C74.7254 27.2555 74.6852 26.6465 74.2862 26.2949L63.1316 16.5064Z" fill="#EB6753"/>
<path d="M59.2426 13.0952C58.8421 12.7461 58.2344 12.785 57.8815 13.1855C57.5312 13.5861 57.5714 14.195 57.972 14.5466L58.6638 15.1531C59.0707 15.5069 59.6765 15.4591 60.0248 15.0626C60.3752 14.6621 60.335 14.0531 59.9345 13.7016L59.2426 13.0952Z" fill="#EB6753"/>
<path d="M74.0723 53.1093V50.2293H75.1907C75.7175 50.2293 76.1549 49.805 76.1549 49.265C76.1549 48.7379 75.7175 48.3008 75.1907 48.3008H73.4549V41.6279H76.3733C79.0991 41.6279 80.3849 38.2464 78.3275 36.4464L44.0248 6.34786C42.9191 5.3707 41.2348 5.3707 40.1162 6.34786L25.7034 18.9993V15.2321H27.0535C27.8891 15.2321 28.5706 14.5507 28.5706 13.7021V9.18921C28.5706 8.34069 27.8891 7.65921 27.0535 7.65921H11.9463C11.1106 7.65921 10.4292 8.34069 10.4292 9.18921V13.7021C10.4292 14.5507 11.1106 15.2321 11.9463 15.2321H13.3091V29.8893L5.83915 36.4464C3.79483 38.2464 5.06767 41.6279 7.79339 41.6279H10.712V83.3363C9.70907 83.3621 8.68055 83.3747 7.67771 83.4005C7.13765 83.4263 6.72629 83.8637 6.73908 84.3905C6.75195 84.9179 7.17629 85.3295 7.70339 85.3295H7.71623C8.33345 85.3163 70.9607 85.3547 70.9607 85.3421C79.8833 85.2779 87.1091 78.0005 87.1091 69.0521C87.1091 61.1837 81.5033 54.6135 74.0723 53.1093ZM12.3577 13.3035V9.58779H26.642V13.3035H12.3577ZM23.7748 15.2321V20.6964L15.2377 28.1921V15.2321H23.7748ZM7.79339 39.6993C6.84196 39.6993 6.39198 38.5164 7.11197 37.8864L41.3891 7.78785C41.7877 7.45353 42.3662 7.45353 42.752 7.78785L77.0549 37.8864C77.7749 38.5164 77.3249 39.6993 76.3733 39.6993H7.79339ZM42.5977 83.2979H23.0291V54.3435C23.0291 53.5335 23.6849 52.8906 24.4948 52.8906H41.1448C41.9419 52.8906 42.5977 53.5335 42.5977 54.3435V83.2979ZM44.5262 83.2979V54.3435C44.5262 52.4793 43.0091 50.9621 41.1448 50.9621H24.4948C22.6306 50.9621 21.1006 52.4793 21.1006 54.3435V83.2979H12.6406V41.6406H71.5265V48.3008H66.4223C65.8817 48.3008 65.4575 48.7379 65.4575 49.265C65.4575 49.805 65.8817 50.2293 66.4223 50.2293H67.5917V53.1093C60.1348 54.6264 54.5548 61.3247 54.5548 69.0521V69.0647C54.5677 75.1463 58.0134 80.5463 63.0791 83.2979H44.5262ZM72.1433 50.2293V52.8393C71.4491 52.775 70.2791 52.775 69.5207 52.8393V50.2293H72.1433ZM70.8449 83.4137C62.8223 83.4137 56.4834 76.8305 56.4834 69.0521C56.4834 61.1837 62.9891 54.5878 71.0891 54.7164C78.8033 54.8579 85.1807 61.1579 85.1807 69.0521C85.1807 76.9721 78.7517 83.4137 70.8449 83.4137Z" fill="#181A20"/>
<path d="M72.1436 50.2292V52.8392C71.4494 52.775 70.2794 52.775 69.521 52.8392V50.2292H72.1436Z" fill="#DDDDDD"/>
<path d="M12.3579 9.58789H26.6422V13.3036H12.3579V9.58789Z" fill="url(#paint0_linear_6108_2862)"/>
<path d="M23.7749 15.2322V20.6965L15.2378 28.1922V15.2322H23.7749Z" fill="url(#paint1_linear_6108_2862)"/>
<path d="M41.145 52.8906H24.495C23.685 52.8906 23.0293 53.5335 23.0293 54.3435V83.2979H42.5978V54.3435C42.5978 53.5335 41.9421 52.8906 41.145 52.8906ZM38.715 69.1037H37.4036C36.8636 69.1037 36.4393 68.6795 36.4393 68.1395C36.4393 67.6121 36.8636 67.1747 37.4036 67.1747H38.715C39.2421 67.1747 39.6793 67.6121 39.6793 68.1395C39.6793 68.6795 39.2421 69.1037 38.715 69.1037Z" fill="url(#paint2_linear_6108_2862)"/>
<path d="M42.0966 19.2437C37.9695 19.2437 34.6138 22.5993 34.6138 26.7266C34.6138 30.8408 37.9695 34.1837 42.0966 34.1837C46.2109 34.1837 49.5538 30.8408 49.5538 26.7266C49.5538 22.5993 46.2109 19.2437 42.0966 19.2437ZM42.0966 32.2551C39.0366 32.2551 36.5423 29.7737 36.5423 26.7266C36.5423 23.6666 39.0366 21.1722 42.0966 21.1722C45.1438 21.1722 47.6252 23.6665 47.6252 26.7266C47.6252 29.7737 45.1438 32.2551 42.0966 32.2551Z" fill="#181A20"/>
<path d="M47.6248 26.7264C47.6248 29.7736 45.1434 32.255 42.0962 32.255C39.0363 32.255 36.542 29.7736 36.542 26.7264C36.542 23.6664 39.0363 21.1721 42.0962 21.1721C45.1434 21.1721 47.6248 23.6664 47.6248 26.7264Z" fill="#DDDDDD"/>
<path d="M39.6795 68.1396C39.6795 68.6796 39.2423 69.1038 38.7152 69.1038H37.4037C36.8638 69.1038 36.4395 68.6796 36.4395 68.1396C36.4395 67.6122 36.8638 67.1748 37.4037 67.1748H38.7152C39.2423 67.1748 39.6795 67.6122 39.6795 68.1396Z" fill="#181A20"/>
<path d="M58.3704 54.0458C58.5775 54.0458 58.7872 53.9792 58.9642 53.8399C59.1124 53.7244 59.2631 53.6089 59.415 53.4983C59.8457 53.1845 59.9398 52.5818 59.6272 52.1511C59.3133 51.7204 58.7106 51.6238 58.2799 51.9389C58.108 52.0645 57.9397 52.1926 57.774 52.3231C57.3546 52.6508 57.2818 53.2573 57.6108 53.6767C57.8004 53.919 58.0841 54.0458 58.3704 54.0458Z" fill="#EB6753"/>
<path d="M50.8055 65.7491C50.8733 65.7641 50.941 65.7701 51.0088 65.7701C51.4533 65.7701 51.8538 65.4605 51.9506 65.0081C52.6788 61.6097 54.3261 58.4592 56.7155 55.899C57.0796 55.5098 57.0582 54.8996 56.669 54.5367C56.2798 54.1726 55.6708 54.1939 55.3067 54.5832C52.6788 57.3994 50.8657 60.8651 50.0646 64.6037C49.9529 65.1251 50.2844 65.6375 50.8055 65.7491Z" fill="#EB6753"/>
<path d="M70.8406 58.1252C70.3078 58.1252 69.8764 58.5572 69.8764 59.0896C69.8764 59.6219 70.3078 60.0538 70.8406 60.0538C75.8038 60.0538 79.8418 64.092 79.8418 69.0552C79.8418 74.0232 75.8038 78.0666 70.8406 78.0666C67.6726 78.0666 64.7938 76.449 63.1426 73.7394C62.8648 73.2864 62.2726 73.1418 61.8166 73.4184C61.3618 73.6956 61.2178 74.2896 61.495 74.7444C63.5002 78.0324 66.9946 79.995 70.8406 79.995C76.867 79.995 81.7702 75.087 81.7702 69.0552C81.7702 63.0282 76.867 58.1252 70.8406 58.1252Z" fill="#181A20"/>
<path d="M71.7968 67.4448V63.5748C71.7968 63.048 71.372 62.6106 70.8326 62.6106C70.3052 62.6106 69.8678 63.048 69.8678 63.5748V67.4448C68.5052 67.8564 67.502 69.1164 67.502 70.6206C67.502 72.4596 68.9936 73.9506 70.8326 73.9506C72.671 73.9506 74.1752 72.4596 74.1752 70.6206C74.1752 69.1164 73.1726 67.8564 71.7968 67.4448ZM70.8326 72.0222C70.061 72.0222 69.431 71.3922 69.431 70.6206C69.431 69.8496 70.061 69.2064 70.8326 69.2064C71.6035 69.2064 72.2468 69.8496 72.2468 70.6206C72.2468 71.3922 71.6035 72.0222 70.8326 72.0222Z" fill="#181A20"/>
<path d="M72.2465 70.6205C72.2465 71.3921 71.6033 72.0221 70.8323 72.0221C70.0607 72.0221 69.4307 71.3921 69.4307 70.6205C69.4307 69.8489 70.0607 69.2063 70.8323 69.2063C71.6033 69.2063 72.2465 69.8489 72.2465 70.6205Z" fill="#DDDDDD"/>
</g>
</g>
<defs>
<linearGradient id="paint0_linear_6108_2862" x1="19.5001" y1="9.58789" x2="19.5001" y2="13.3036" gradientUnits="userSpaceOnUse">
<stop stop-color="#DDDDDD" stop-opacity="0"/>
<stop offset="1" stop-color="#DDDDDD"/>
</linearGradient>
<linearGradient id="paint1_linear_6108_2862" x1="19.5063" y1="15.2322" x2="19.5063" y2="28.1922" gradientUnits="userSpaceOnUse">
<stop stop-color="#DDDDDD" stop-opacity="0"/>
<stop offset="1" stop-color="#DDDDDD"/>
</linearGradient>
<linearGradient id="paint2_linear_6108_2862" x1="32.8136" y1="52.8906" x2="32.8136" y2="83.2979" gradientUnits="userSpaceOnUse">
<stop stop-color="#DDDDDD" stop-opacity="0"/>
<stop offset="1" stop-color="#DDDDDD"/>
</linearGradient>
<clipPath id="clip0_6108_2862">
<rect width="90" height="90" fill="white" transform="translate(0.970215 0.47998)"/>
</clipPath>
<clipPath id="clip1_6108_2862">
<rect width="90" height="90" fill="white" transform="translate(0.970215 0.47998)"/>
</clipPath>
</defs>
</svg>
