<svg width="91" height="91" viewBox="0 0 91 91" fill="none" xmlns="http://www.w3.org/2000/svg">
<g clip-path="url(#clip0_6108_2894)">
<g clip-path="url(#clip1_6108_2894)">
<path d="M35.393 44.5789H21.6708C21.1385 44.5789 20.7065 45.0108 20.7065 45.5432V60.7345C20.7065 61.2667 21.1385 61.6987 21.6708 61.6987C22.2032 61.6987 22.6351 61.2667 22.6351 60.7345V46.5074H35.393C35.9254 46.5074 36.3574 46.0756 36.3574 45.5432C36.3574 45.0108 35.9254 44.5789 35.393 44.5789Z" fill="#EB6753"/>
<path d="M21.6708 63.3899C21.1385 63.3899 20.7065 63.8219 20.7065 64.3541V65.8859C20.7065 66.4181 21.1385 66.8501 21.6708 66.8501C22.2032 66.8501 22.6351 66.4181 22.6351 65.8859V64.3541C22.6351 63.8219 22.2032 63.3899 21.6708 63.3899Z" fill="#EB6753"/>
<path d="M75.9948 25.2729C76.263 25.2729 76.53 25.1624 76.7202 24.9452C77.0718 24.5447 77.0322 23.9357 76.6314 23.5841L65.6958 13.9877C65.2962 13.6361 64.686 13.6763 64.3356 14.0756C63.984 14.4761 64.0236 15.0851 64.4238 15.4367L75.3594 25.0331C75.5424 25.1938 75.7698 25.2729 75.9948 25.2729Z" fill="#EB6753"/>
<path d="M62.4094 13.3525C62.6776 13.3525 62.9434 13.242 63.1342 13.0248C63.4858 12.6243 63.4463 12.0153 63.0467 11.6637L62.566 11.2419C62.1658 10.8903 61.5574 10.9305 61.2052 11.3297C60.8536 11.7303 60.8932 12.3392 61.2928 12.6908L61.7734 13.1127C61.9564 13.2734 62.1832 13.3525 62.4094 13.3525Z" fill="#EB6753"/>
<path d="M76.2309 51.6996V41.4782H81.3735C84.1635 41.4782 85.4625 38.0196 83.3667 36.181L47.9324 5.0925C46.801 4.08961 45.0781 4.08961 43.9466 5.0925L28.9938 18.2067V14.2082H30.421C31.2695 14.2082 31.9638 13.5268 31.9638 12.6653V7.99813C31.9638 7.14961 31.2695 6.45536 30.421 6.45536H14.8252C13.9767 6.45536 13.2824 7.14961 13.2824 7.99813V12.6653C13.2824 13.5268 13.9767 14.2082 14.8252 14.2082H16.2524V29.3925L8.53808 36.181C6.42951 38.0196 7.74092 41.4782 10.5309 41.4782H15.6867V84.6912H12.961C12.4338 84.6912 11.9967 85.128 11.9967 85.6554C11.9967 86.1822 12.4338 86.6196 12.961 86.6196H78.9441C79.4835 86.6196 79.9083 86.1822 79.9083 85.6554C79.9083 85.128 79.4835 84.6912 78.9441 84.6912H76.2309V74.3412C80.9367 72.7338 84.3435 68.2722 84.3435 63.0138C84.3435 57.7682 80.9367 53.3068 76.2309 51.6996ZM15.2109 12.2796V8.38393H30.0352V12.2796H15.2109ZM27.0652 14.221V19.9039L18.1809 27.6953V14.221H27.0652ZM10.5309 39.5496C9.51524 39.5496 9.03956 38.2896 9.79808 37.621L45.2195 6.53251C45.4252 6.35249 45.6824 6.26248 45.9395 6.26248C46.1966 6.26248 46.4538 6.35249 46.6595 6.53251L82.0935 37.621C82.8525 38.2896 82.3893 39.5496 81.3735 39.5496H10.5309ZM74.3025 84.6912C50.9795 84.6912 52.368 84.6912 17.6152 84.6912V41.4782H74.3025V51.2111C69.1851 50.3754 63.8751 52.9981 61.5483 57.9354H46.9166V53.6796C46.9166 51.4296 45.1038 49.6167 42.8538 49.6167C40.6295 49.6167 38.8038 51.4425 38.8038 53.6796V72.3738C38.8038 74.5854 40.5909 76.437 42.8538 76.437C45.1038 76.437 46.9166 74.6112 46.9166 72.3738V68.1054H61.5483C63.5793 72.4128 67.8735 74.997 72.3735 74.997C72.9909 74.997 73.7883 74.9196 74.3025 74.8296V84.6912ZM60.8152 66.177H40.7323V59.8639C40.7323 59.8639 43.1238 59.8768 60.8152 59.8639C60.3138 61.728 60.2366 64.0296 60.8152 66.177ZM44.988 68.1054V72.3738C44.988 73.5438 44.0366 74.508 42.8538 74.508C41.6966 74.508 40.7323 73.557 40.7323 72.3738V68.1054H44.988ZM40.7323 57.9354V53.6796C40.7323 52.4968 41.6838 51.5453 42.8538 51.5453C44.0366 51.5453 44.988 52.5096 44.988 53.6796V57.9354H40.7323ZM72.3735 73.068C69.7635 73.068 67.3983 72.0522 65.5983 70.4196C63.8109 68.787 62.6151 66.5238 62.3709 64.0296C61.7793 58.0896 66.4983 52.9854 72.3735 52.9854C77.8767 52.9854 82.4151 57.4725 82.4151 63.0138C82.4151 68.6196 77.8251 73.068 72.3735 73.068Z" fill="#181A20"/>
<path d="M72.3736 52.9854C66.4984 52.9854 61.7794 58.0896 62.371 64.0295C62.6152 66.5237 63.811 68.787 65.5984 70.4195C67.3978 72.0527 69.7636 73.068 72.3736 73.068C77.8252 73.068 82.4152 68.6195 82.4152 63.0137C82.4152 57.4725 77.8768 52.9854 72.3736 52.9854ZM74.9584 67.3079C72.5926 67.3079 70.6768 65.3796 70.6768 63.027C70.6768 60.6612 72.5926 58.7325 74.9584 58.7325C77.3236 58.7325 79.2526 60.6612 79.2526 63.027C79.2526 65.3796 77.3236 67.3079 74.9584 67.3079Z" fill="url(#paint0_linear_6108_2894)"/>
<path d="M44.9881 53.6797V57.9355H40.7324V53.6797C40.7324 52.4969 41.6838 51.5454 42.8538 51.5454C44.0367 51.5454 44.9881 52.5097 44.9881 53.6797Z" fill="#DDDDDD"/>
<path d="M44.9881 68.1055V72.3739C44.9881 73.5439 44.0367 74.5081 42.8538 74.5081C41.6967 74.5081 40.7324 73.5571 40.7324 72.3739V68.1055H44.9881Z" fill="#DDDDDD"/>
<path d="M15.2109 8.38452H30.0352V12.2803H15.2109V8.38452Z" fill="url(#paint1_linear_6108_2894)"/>
<path d="M27.0654 14.2212V19.904L18.1812 27.6955V14.2212H27.0654Z" fill="url(#paint2_linear_6108_2894)"/>
<path d="M45.9527 18.5024C41.7612 18.5024 38.3413 21.9224 38.3413 26.1139C38.3413 30.3053 41.7612 33.7124 45.9527 33.7124C50.1441 33.7124 53.5513 30.3053 53.5513 26.1139C53.5513 21.9224 50.1441 18.5024 45.9527 18.5024ZM45.9527 31.7838C42.8284 31.7838 40.2699 29.2381 40.2699 26.1139C40.2699 22.9767 42.8284 20.431 45.9527 20.431C49.077 20.431 51.6227 22.9767 51.6227 26.1139C51.6228 29.2381 49.077 31.7838 45.9527 31.7838Z" fill="#181A20"/>
<path d="M51.6224 26.114C51.6224 29.2383 49.0766 31.784 45.9524 31.784C42.8281 31.784 40.2695 29.2383 40.2695 26.114C40.2695 22.9768 42.8281 20.4312 45.9524 20.4312C49.0766 20.4312 51.6224 22.9768 51.6224 26.114Z" fill="#DDDDDD"/>
<path d="M52.1879 73.1279H52.7736C53.306 73.1279 53.7379 72.6965 53.7379 72.1637C53.7379 71.6315 53.306 71.1995 52.7736 71.1995H52.1879C51.6555 71.1995 51.2236 71.6315 51.2236 72.1637C51.2236 72.6965 51.6555 73.1279 52.1879 73.1279Z" fill="#EB6753"/>
<path d="M56.0542 73.1279H61.3606C61.8934 73.1279 62.3254 72.6965 62.3254 72.1637C62.3254 71.6315 61.8934 71.1995 61.3606 71.1995H56.0542C55.5218 71.1995 55.0898 71.6315 55.0898 72.1637C55.0898 72.6965 55.5218 73.1279 56.0542 73.1279Z" fill="#EB6753"/>
<path d="M74.9584 58.7324C72.5926 58.7324 70.6768 60.6611 70.6768 63.0269C70.6768 65.3795 72.5926 67.3079 74.9584 67.3079C77.3236 67.3079 79.2526 65.3795 79.2526 63.0269C79.2526 60.6611 77.3236 58.7324 74.9584 58.7324ZM74.9584 65.3795C73.6594 65.3795 72.6052 64.3253 72.6052 63.0269C72.6052 61.7279 73.6594 60.6611 74.9584 60.6611C76.2568 60.6611 77.3236 61.7279 77.3236 63.0269C77.3236 64.3253 76.2568 65.3795 74.9584 65.3795Z" fill="#181A20"/>
</g>
</g>
<defs>
<linearGradient id="paint0_linear_6108_2894" x1="72.3682" y1="52.9854" x2="72.3682" y2="73.068" gradientUnits="userSpaceOnUse">
<stop stop-color="#DDDDDD" stop-opacity="0"/>
<stop offset="1" stop-color="#DDDDDD"/>
</linearGradient>
<linearGradient id="paint1_linear_6108_2894" x1="22.623" y1="8.38452" x2="22.623" y2="12.2803" gradientUnits="userSpaceOnUse">
<stop stop-color="#DDDDDD" stop-opacity="0"/>
<stop offset="1" stop-color="#DDDDDD"/>
</linearGradient>
<linearGradient id="paint2_linear_6108_2894" x1="22.6233" y1="14.2212" x2="22.6233" y2="27.6955" gradientUnits="userSpaceOnUse">
<stop stop-color="#DDDDDD" stop-opacity="0"/>
<stop offset="1" stop-color="#DDDDDD"/>
</linearGradient>
<clipPath id="clip0_6108_2894">
<rect width="90" height="90" fill="white" transform="translate(0.949707 0.47998)"/>
</clipPath>
<clipPath id="clip1_6108_2894">
<rect width="90" height="90" fill="white" transform="translate(0.949707 0.47998)"/>
</clipPath>
</defs>
</svg>
