<svg width="16" height="17" viewBox="0 0 16 17" fill="none" xmlns="http://www.w3.org/2000/svg">
<g clip-path="url(#clip0_6108_2821)">
<path d="M15.1732 1.23877H6.00654C5.77622 1.23877 5.58985 1.42517 5.58985 1.65552C5.58985 1.88586 5.77622 2.07226 6.00654 2.07226H14.1673L0.711924 15.5297C0.54915 15.6926 0.54915 15.9563 0.711924 16.119C0.793291 16.2004 0.899931 16.2411 1.00653 16.2411C1.11313 16.2411 1.21974 16.2004 1.30114 16.119L14.7565 2.66153V10.8236C14.7565 11.054 14.9429 11.2404 15.1732 11.2404C15.4035 11.2404 15.5899 11.054 15.5899 10.8236V1.65552C15.5899 1.42517 15.4035 1.23877 15.1732 1.23877Z" fill="white"/>
</g>
<defs>
<clipPath id="clip0_6108_2821">
<rect width="15" height="15.94" fill="white" transform="translate(0.589844 0.609863)"/>
</clipPath>
</defs>
</svg>
